<svg width="24" height="24" viewBox="0 0 24 24" fill="none" xmlns="http://www.w3.org/2000/svg">
<path d="M11.9995 1.75C17.6604 1.75 22.2495 6.33914 22.2495 12C22.2495 17.6609 17.6604 22.25 11.9995 22.25C10.2255 22.2499 8.55748 21.7989 7.10205 21.0059L6.95068 20.9229L6.77979 20.9521L2.04053 21.7471C2.00166 21.7535 1.96189 21.7501 1.92432 21.7383C1.88667 21.7264 1.85186 21.7064 1.82373 21.6787C1.7956 21.651 1.77468 21.6166 1.76221 21.5791C1.74977 21.5417 1.74655 21.5019 1.75244 21.4629L2.55225 16.1729L2.57275 16.0352L2.52002 15.9072C2.0092 14.6684 1.74715 13.341 1.74951 12.001V12C1.74951 6.33929 6.33886 1.75024 11.9995 1.75ZM7.94287 6.2002C6.93409 6.20024 6.05508 7.06094 6.21826 8.15918V8.16016C6.43919 9.62892 7.09811 12.406 9.10986 14.4326C11.1981 16.5365 14.1549 17.4172 15.7173 17.7598C16.8617 18.0114 17.8003 17.097 17.8003 16.0391V14.2148C17.8003 14.0939 17.7723 13.9752 17.7202 13.8672L17.6597 13.7627L17.5845 13.6689C17.5023 13.581 17.4008 13.5124 17.2876 13.4688V13.4678L15.3276 12.7148H15.3267C15.2208 12.6743 15.1079 12.6567 14.9956 12.6631L14.8843 12.6777L13.0874 13.0283C12.032 12.4575 11.4071 11.8457 11.0142 10.9795L11.3589 9.11523C11.3854 8.97262 11.3725 8.82535 11.3218 8.68945L10.5864 6.71973L10.5356 6.61035C10.4963 6.53985 10.4467 6.47553 10.3882 6.41992L10.2944 6.34375L10.1899 6.28223C10.0814 6.22884 9.96138 6.20061 9.83936 6.2002H7.94287Z" stroke="white"/>
</svg>
